<?xml version="1.0" encoding="utf-8"?>
<!-- Generator: Adobe Illustrator 16.0.4, SVG Export Plug-In . SVG Version: 6.00 Build 0)  -->
<!DOCTYPE svg PUBLIC "-//W3C//DTD SVG 1.1//EN" "http://www.w3.org/Graphics/SVG/1.1/DTD/svg11.dtd">
<svg version="1.1" id="Laag_1" xmlns="http://www.w3.org/2000/svg" xmlns:xlink="http://www.w3.org/1999/xlink" x="0px" y="0px"
	 width="478.989px" height="88.159px" viewBox="0 0 478.989 88.159" enable-background="new 0 0 478.989 88.159"
	 xml:space="preserve">
<g>
	<g>
		<g>
			<g>
				<path fill="#40577A" d="M260.869,19.486c0-0.589,0.182-1.073,0.52-1.447c0.349-0.369,0.821-0.556,1.413-0.556
					c0.54,0,1.013,0.187,1.408,0.556c0.399,0.374,0.592,0.857,0.592,1.447v1.411c0,0.545-0.192,1.002-0.592,1.371
					c-0.396,0.366-0.868,0.554-1.408,0.554c-0.592,0-1.064-0.188-1.413-0.554c-0.338-0.369-0.52-0.826-0.52-1.371V19.486z
					 M260.869,33.717c0-0.551,0.182-1.013,0.52-1.413c0.349-0.395,0.821-0.589,1.413-0.589c0.54,0,1.013,0.194,1.408,0.589
					c0.399,0.4,0.592,0.862,0.592,1.413v33.114c0,0.543-0.192,1-0.592,1.374c-0.396,0.369-0.868,0.556-1.408,0.556
					c-0.592,0-1.064-0.187-1.413-0.556c-0.338-0.374-0.52-0.831-0.52-1.374V33.717z"/>
				<path fill="#40577A" d="M262.801,70.304c-1.008,0-1.886-0.355-2.53-1.031c-0.618-0.681-0.945-1.52-0.945-2.442V33.717
					c0-0.925,0.302-1.73,0.899-2.418c1.241-1.416,3.656-1.509,5.08-0.085c0.686,0.701,1.039,1.558,1.039,2.504v33.114
					c0,0.958-0.369,1.826-1.065,2.491C264.578,69.972,263.726,70.304,262.801,70.304z M262.801,33.26
					c-0.327,0.161-0.39,0.257-0.39,0.457v33.114l0.39,0.387c0.156,0,0.249-0.042,0.363-0.146l0.094-33.356L262.801,33.26z
					 M262.801,24.364c-1.008,0-1.886-0.361-2.53-1.036c-0.618-0.665-0.945-1.496-0.945-2.431v-1.411
					c0-0.969,0.327-1.831,0.931-2.491c1.262-1.325,3.579-1.397,5.002-0.088c0.717,0.681,1.086,1.574,1.086,2.579v1.411
					c0,0.971-0.374,1.833-1.075,2.491C264.578,24.026,263.726,24.364,262.801,24.364z"/>
			</g>
			<g>
				<path fill="#40577A" d="M300.064,31.047c0.54,0,0.987,0.171,1.335,0.517c0.354,0.345,0.52,0.79,0.52,1.333
					c0,1.236-0.613,1.857-1.854,1.857h-8.369c-3.704,0-6.395,0.99-8.083,2.961c-1.673,1.971-2.509,4.792-2.509,8.447v7.036
					c0,3.854,0.872,6.795,2.634,8.821c1.745,2.026,4.399,3.034,7.958,3.034h8.369c0.54,0,0.987,0.177,1.335,0.52
					c0.354,0.343,0.52,0.79,0.52,1.333s-0.166,0.99-0.52,1.338c-0.348,0.343-0.795,0.52-1.335,0.52h-8.369
					c-4.888,0-8.515-1.268-10.894-3.782c-2.374-2.52-3.553-6.467-3.553-11.859v-6.958c0-4.993,1.168-8.756,3.517-11.299
					c2.343-2.545,5.995-3.816,10.93-3.816H300.064z"/>
				<path fill="#40577A" d="M300.064,70.304h-8.369c-5.304,0-9.346-1.434-12.011-4.262c-2.644-2.803-3.984-7.15-3.984-12.922v-6.958
					c0-5.372,1.33-9.52,3.933-12.348c2.629-2.86,6.696-4.312,12.062-4.312h8.369c0.945,0,1.781,0.33,2.421,0.964
					c0.649,0.639,0.977,1.486,0.977,2.431c0,2.099-1.299,3.402-3.397,3.402h-8.369c-3.21,0-5.538,0.811-6.903,2.416
					c-1.419,1.678-2.141,4.187-2.141,7.447v7.036c0,3.462,0.753,6.083,2.249,7.816c1.449,1.675,3.684,2.496,6.795,2.496h8.369
					c0.945,0,1.781,0.332,2.421,0.966c0.649,0.639,0.977,1.48,0.977,2.429s-0.322,1.779-0.956,2.418
					C301.845,69.972,301.009,70.304,300.064,70.304z M291.695,32.59c-4.468,0-7.767,1.114-9.787,3.314
					c-2.067,2.239-3.116,5.693-3.116,10.257v6.958c0,4.961,1.06,8.592,3.137,10.8c2.058,2.187,5.352,3.299,9.767,3.299h8.369
					c0.182,0,0.229-0.042,0.26-0.078l1.075-1.569l-1.075,1.096l-8.629-0.073c-4.005,0-7.08-1.2-9.133-3.569
					c-1.994-2.301-3.002-5.605-3.002-9.829v-7.036c0-4.021,0.966-7.198,2.883-9.447c1.979-2.328,5.097-3.507,9.252-3.507h8.369
					l0.312-0.312l-0.312-0.307H291.695z"/>
			</g>
			<g>
				<path fill="#40577A" d="M326.739,69.203c-1.776,0-3.412-0.309-4.919-0.925c-1.512-0.613-2.826-1.496-3.933-2.628
					c-1.111-1.138-1.979-2.509-2.592-4.112c-0.618-1.603-0.931-3.4-0.931-5.379V44.902c0-1.979,0.312-3.805,0.931-5.481
					c0.612-1.683,1.47-3.138,2.556-4.379c1.086-1.229,2.399-2.192,3.933-2.889c1.527-0.69,3.179-1.036,4.955-1.036h4.52
					c1.782,0,3.419,0.346,4.931,1.036c1.506,0.696,2.8,1.66,3.886,2.889c1.085,1.241,1.942,2.696,2.556,4.379
					c0.618,1.676,0.93,3.501,0.93,5.481v11.257c0,1.979-0.312,3.777-0.93,5.379c-0.613,1.603-1.48,2.974-2.593,4.112
					c-1.106,1.132-2.42,2.016-3.922,2.628c-1.512,0.616-3.133,0.925-4.857,0.925H326.739z M331.258,65.499
					c1.185,0,2.297-0.247,3.336-0.743c1.039-0.494,1.922-1.159,2.67-2c0.737-0.839,1.33-1.829,1.776-2.966
					c0.441-1.135,0.665-2.34,0.665-3.631V44.902c0-1.283-0.224-2.533-0.665-3.746c-0.446-1.205-1.039-2.278-1.776-3.221
					c-0.748-0.94-1.631-1.694-2.67-2.26c-1.039-0.566-2.151-0.85-3.336-0.85h-4.52c-1.184,0-2.29,0.283-3.329,0.85
					c-1.039,0.566-1.943,1.319-2.702,2.26c-0.773,0.943-1.36,2.016-1.786,3.221c-0.421,1.213-0.624,2.462-0.624,3.746v11.257
					c0,1.291,0.203,2.496,0.624,3.631c0.426,1.138,1.013,2.127,1.786,2.966c0.759,0.841,1.663,1.506,2.702,2
					c1.039,0.496,2.146,0.743,3.329,0.743H331.258z"/>
				<path fill="#40577A" d="M331.258,70.746h-4.52c-1.969,0-3.823-0.351-5.501-1.039c-1.698-0.691-3.194-1.693-4.446-2.977
					c-1.268-1.299-2.25-2.86-2.936-4.645c-0.686-1.779-1.033-3.774-1.033-5.927V44.902c0-2.141,0.348-4.161,1.023-6.011
					c0.675-1.833,1.631-3.47,2.846-4.867c1.231-1.397,2.728-2.497,4.452-3.273c1.726-0.779,3.605-1.177,5.595-1.177h4.52
					c1.995,0,3.871,0.397,5.574,1.182c1.693,0.771,3.174,1.875,4.4,3.268c1.221,1.397,2.177,3.028,2.847,4.867
					c0.681,1.85,1.023,3.87,1.023,6.011v11.257c0,2.153-0.349,4.148-1.028,5.927c-0.681,1.785-1.673,3.346-2.93,4.645
					c-1.258,1.278-2.754,2.286-4.447,2.977C335.009,70.396,333.186,70.746,331.258,70.746z M326.739,32.663
					c-1.553,0-3.002,0.301-4.327,0.899c-1.319,0.595-2.462,1.439-3.402,2.501c-0.961,1.099-1.725,2.413-2.265,3.889
					c-0.551,1.514-0.837,3.179-0.837,4.951v11.257c0,1.771,0.275,3.395,0.831,4.832c0.53,1.387,1.294,2.592,2.255,3.579
					c0.956,0.977,2.104,1.75,3.408,2.28c1.309,0.535,2.769,0.808,4.337,0.808h4.52c1.522,0,2.956-0.273,4.271-0.808
					c1.304-0.53,2.447-1.304,3.408-2.28c0.966-0.987,1.725-2.192,2.254-3.579c0.551-1.437,0.826-3.06,0.826-4.832V44.902
					c0-1.771-0.285-3.437-0.831-4.951c-0.545-1.476-1.309-2.79-2.275-3.889c-0.935-1.062-2.067-1.906-3.371-2.509
					c-1.31-0.603-2.712-0.891-4.281-0.891H326.739z M331.258,67.042h-4.52c-1.407,0-2.753-0.301-3.994-0.894
					c-1.216-0.577-2.291-1.371-3.185-2.356c-0.889-0.969-1.59-2.14-2.083-3.467c-0.479-1.289-0.723-2.688-0.723-4.167V44.902
					c0-1.46,0.239-2.894,0.712-4.25c0.478-1.382,1.169-2.618,2.042-3.686c0.888-1.099,1.947-1.985,3.163-2.642
					c1.263-0.694,2.629-1.044,4.067-1.044h4.52c1.444,0,2.816,0.351,4.078,1.044c1.205,0.652,2.26,1.55,3.133,2.654
					c0.842,1.073,1.517,2.291,2.016,3.642c0.509,1.382,0.769,2.821,0.769,4.281v11.257c0,1.478-0.26,2.889-0.779,4.198
					c-0.509,1.296-1.2,2.447-2.052,3.418c-0.878,1.003-1.948,1.797-3.164,2.374C334.017,66.741,332.671,67.042,331.258,67.042z
					 M326.739,36.369c-0.93,0-1.776,0.216-2.581,0.657c-0.868,0.473-1.621,1.112-2.255,1.88c-0.645,0.797-1.158,1.725-1.522,2.764
					c-0.358,1.023-0.54,2.114-0.54,3.231v11.257c0,1.122,0.182,2.135,0.53,3.094c0.353,0.953,0.852,1.779,1.47,2.459
					c0.634,0.702,1.366,1.237,2.234,1.652c0.836,0.4,1.709,0.592,2.664,0.592h4.52c0.946,0,1.845-0.2,2.671-0.592
					c0.856-0.411,1.568-0.94,2.177-1.626c0.612-0.702,1.116-1.545,1.496-2.509c0.379-0.966,0.561-1.966,0.561-3.07V44.902
					c0-1.096-0.192-2.177-0.571-3.208c-0.39-1.049-0.909-1.998-1.543-2.811c-0.618-0.771-1.34-1.384-2.197-1.857
					c-0.811-0.441-1.657-0.657-2.593-0.657H326.739z"/>
			</g>
			<g>
				<path fill="#40577A" d="M380.09,43.418c0-1.286-0.219-2.455-0.634-3.514c-0.416-1.062-0.977-1.979-1.673-2.75
					c-0.686-0.761-1.507-1.351-2.441-1.774c-0.936-0.42-1.922-0.626-2.961-0.626h-12.452v31.855c0,0.646-0.197,1.164-0.587,1.556
					c-0.4,0.4-0.862,0.598-1.408,0.598c-0.545,0-0.997-0.198-1.371-0.598c-0.374-0.392-0.556-0.862-0.556-1.405V34.237
					c0-0.847,0.28-1.587,0.847-2.234c0.576-0.639,1.324-0.956,2.265-0.956h13.263c1.532,0,2.997,0.271,4.405,0.811
					c1.407,0.545,2.659,1.351,3.74,2.416c1.096,1.06,1.938,2.348,2.561,3.881c0.618,1.532,0.925,3.293,0.925,5.265v23.34
					c0,0.543-0.197,1.013-0.598,1.405c-0.39,0.4-0.862,0.598-1.402,0.598c-0.551,0-1.003-0.198-1.366-0.598
					c-0.374-0.392-0.556-0.862-0.556-1.405V43.418z"/>
				<path fill="#40577A" d="M382.012,70.304c-0.977,0-1.839-0.379-2.504-1.091c-0.623-0.657-0.961-1.506-0.961-2.455v-23.34
					c0-1.067-0.177-2.062-0.524-2.953c-0.349-0.875-0.811-1.642-1.382-2.281c-0.541-0.592-1.189-1.06-1.933-1.397
					c-0.732-0.327-1.491-0.488-2.327-0.488h-10.904v30.31c0,1.049-0.363,1.966-1.044,2.646c-1.393,1.393-3.678,1.364-4.998-0.031
					c-0.634-0.667-0.971-1.517-0.971-2.465V34.237c0-1.226,0.415-2.322,1.236-3.252c0.872-0.977,2.047-1.483,3.418-1.483h13.263
					c1.714,0,3.382,0.309,4.955,0.917c1.596,0.613,3.034,1.538,4.271,2.748c1.226,1.195,2.208,2.678,2.909,4.411
					c0.691,1.704,1.039,3.67,1.039,5.841v23.34c0,0.958-0.363,1.826-1.055,2.501C383.835,69.936,382.973,70.304,382.012,70.304z
					 M358.386,33.208h13.995c1.268,0,2.473,0.26,3.595,0.769c1.138,0.504,2.13,1.229,2.956,2.14c0.825,0.922,1.48,2,1.958,3.226
					c0.493,1.247,0.743,2.624,0.743,4.075v23.34l0.379,0.46c0.114,0,0.192-0.021,0.307-0.14l0.15-23.66
					c0-1.774-0.27-3.353-0.811-4.686c-0.551-1.343-1.268-2.45-2.202-3.358c-0.94-0.915-2.026-1.616-3.227-2.073
					c-1.226-0.473-2.514-0.712-3.849-0.712h-13.263c-0.629,0-0.92,0.229-1.111,0.447c-0.307,0.348-0.458,0.732-0.458,1.2v32.522
					l0.385,0.46c0.358-0.187,0.452-0.286,0.452-0.61V33.208z"/>
			</g>
			<g>
				<path fill="#40577A" d="M396.464,19.486c0-0.589,0.171-1.073,0.52-1.447c0.338-0.369,0.811-0.556,1.397-0.556
					c0.545,0,1.013,0.187,1.413,0.556c0.399,0.374,0.592,0.857,0.592,1.447v1.411c0,0.545-0.192,1.002-0.592,1.371
					c-0.4,0.366-0.868,0.554-1.413,0.554c-0.587,0-1.06-0.188-1.397-0.554c-0.349-0.369-0.52-0.826-0.52-1.371V19.486z
					 M396.464,33.717c0-0.551,0.171-1.013,0.52-1.413c0.338-0.395,0.811-0.589,1.397-0.589c0.545,0,1.013,0.194,1.413,0.589
					c0.399,0.4,0.592,0.862,0.592,1.413v33.114c0,0.543-0.192,1-0.592,1.374c-0.4,0.369-0.868,0.556-1.413,0.556
					c-0.587,0-1.06-0.187-1.397-0.556c-0.349-0.374-0.52-0.831-0.52-1.374V33.717z"/>
				<path fill="#40577A" d="M398.381,70.304c-1.023,0-1.901-0.369-2.535-1.054c-0.598-0.639-0.925-1.483-0.925-2.418V33.717
					c0-0.935,0.302-1.75,0.904-2.431c0.421-0.494,1.226-1.117,2.556-1.117c0.955,0,1.823,0.364,2.504,1.044s1.044,1.543,1.044,2.504
					v33.114c0,0.972-0.374,1.839-1.081,2.501C400.163,69.972,399.311,70.304,398.381,70.304z M398.381,33.26
					c-0.322,0.161-0.374,0.257-0.374,0.457v33.114l0.374,0.387c0.15,0,0.249-0.042,0.363-0.146l0.099-33.356L398.381,33.26z
					 M398.381,24.364c-1.023,0-1.901-0.361-2.535-1.054c-0.598-0.634-0.925-1.473-0.925-2.413v-1.411
					c0-0.982,0.327-1.852,0.935-2.501c1.18-1.291,3.554-1.4,4.987-0.078c0.712,0.67,1.086,1.561,1.086,2.579v1.411
					c0,0.984-0.374,1.844-1.086,2.504C400.163,24.026,399.311,24.364,398.381,24.364z"/>
			</g>
			<g>
				<path fill="#40577A" d="M435.659,31.047c0.541,0,0.987,0.171,1.341,0.517c0.338,0.345,0.515,0.79,0.515,1.333
					c0,1.236-0.624,1.857-1.855,1.857h-8.368c-3.715,0-6.405,0.99-8.083,2.961c-1.688,1.971-2.52,4.792-2.52,8.447v7.036
					c0,3.854,0.883,6.795,2.628,8.821c1.762,2.026,4.416,3.034,7.975,3.034h8.368c0.541,0,0.987,0.177,1.341,0.52
					c0.338,0.343,0.515,0.79,0.515,1.333s-0.177,0.99-0.515,1.338c-0.354,0.343-0.8,0.52-1.341,0.52h-8.368
					c-4.899,0-8.524-1.268-10.904-3.782c-2.363-2.52-3.559-6.467-3.559-11.859v-6.958c0-4.993,1.185-8.756,3.522-11.299
					c2.354-2.545,5.995-3.816,10.94-3.816H435.659z"/>
				<path fill="#40577A" d="M435.659,70.304h-8.368c-5.31,0-9.351-1.434-12.026-4.262c-2.639-2.823-3.979-7.164-3.979-12.922v-6.958
					c0-5.359,1.32-9.509,3.933-12.343c2.649-2.87,6.707-4.317,12.073-4.317h8.368c0.946,0,1.777,0.33,2.416,0.964
					c0.654,0.652,0.987,1.491,0.987,2.431c0,2.099-1.304,3.402-3.403,3.402h-8.368c-3.221,0-5.543,0.811-6.904,2.416
					c-1.429,1.665-2.155,4.171-2.155,7.447v7.036c0,3.449,0.764,6.078,2.26,7.816c1.454,1.675,3.683,2.496,6.8,2.496h8.368
					c0.946,0,1.777,0.332,2.416,0.966c0.654,0.649,0.987,1.486,0.987,2.429c0,0.933-0.333,1.766-0.956,2.413
					C437.436,69.972,436.605,70.304,435.659,70.304z M427.291,32.59c-4.468,0-7.767,1.122-9.808,3.314
					c-2.058,2.25-3.107,5.699-3.107,10.257v6.958c0,4.95,1.055,8.582,3.139,10.805c2.062,2.182,5.355,3.293,9.776,3.293h8.368
					c0.183,0,0.224-0.042,0.26-0.078L437,65.572l-1.081,1.096l-8.628-0.073c-4.011,0-7.081-1.2-9.138-3.563
					c-1.995-2.307-3.008-5.618-3.008-9.834v-7.036c0-4.034,0.971-7.213,2.894-9.447c1.974-2.328,5.086-3.507,9.252-3.507h8.368
					l0.312-0.312l-0.312-0.307H427.291z"/>
			</g>
			<g>
				<path fill="#40577A" d="M452.106,32.896c0-0.543,0.172-0.987,0.52-1.333c0.348-0.346,0.784-0.517,1.34-0.517h13.408
					c1.486,0,2.837,0.271,4.078,0.811c1.231,0.545,2.291,1.299,3.185,2.265c0.894,0.956,1.579,2.109,2.072,3.441
					c0.494,1.338,0.738,2.766,0.738,4.299v23.933c0,0.841-0.281,1.542-0.847,2.109c-0.577,0.566-1.278,0.857-2.12,0.857h-13.844
					c-1.486,0-2.884-0.278-4.198-0.821c-1.304-0.543-2.436-1.289-3.402-2.255c-0.966-0.966-1.725-2.088-2.265-3.376
					c-0.546-1.278-0.811-2.665-0.811-4.148c0-1.483,0.265-2.86,0.811-4.148c0.54-1.278,1.299-2.405,2.265-3.371
					c0.967-0.958,2.099-1.73,3.402-2.296c1.314-0.566,2.712-0.852,4.198-0.852h12.888v-5.408c0-2.073-0.556-3.818-1.641-5.221
					c-1.081-1.413-2.593-2.112-4.51-2.112h-13.263C452.771,34.753,452.106,34.133,452.106,32.896z M473.524,64.902V51.276h-12.888
					c-0.945,0-1.834,0.182-2.681,0.556c-0.831,0.366-1.569,0.862-2.182,1.48c-0.613,0.616-1.097,1.34-1.449,2.182
					c-0.338,0.847-0.515,1.732-0.515,2.667c0,0.94,0.177,1.821,0.515,2.628c0.353,0.818,0.836,1.53,1.449,2.153
					c0.612,0.621,1.351,1.101,2.182,1.439c0.847,0.351,1.735,0.52,2.681,0.52H473.524z"/>
				<path fill="#40577A" d="M474.48,70.304h-13.844c-1.673,0-3.283-0.319-4.79-0.935c-1.496-0.626-2.805-1.496-3.901-2.592
					c-1.111-1.109-1.984-2.411-2.598-3.871c-0.618-1.449-0.93-3.052-0.93-4.745c0-1.683,0.312-3.281,0.93-4.746
					c0.618-1.46,1.497-2.764,2.598-3.865c1.112-1.104,2.411-1.985,3.876-2.624c1.506-0.649,3.127-0.977,4.815-0.977h11.345v-3.865
					c0-1.729-0.426-3.13-1.319-4.275c-0.789-1.039-1.833-1.512-3.288-1.512h-13.263c-2.191,0-3.548-1.304-3.548-3.402
					c0-0.958,0.338-1.803,0.982-2.431c0.648-0.639,1.459-0.964,2.42-0.964h13.408c1.684,0,3.263,0.314,4.691,0.94
					c1.428,0.626,2.67,1.514,3.703,2.631c1.014,1.091,1.818,2.42,2.39,3.953c0.551,1.496,0.831,3.122,0.831,4.836v23.933
					c0,1.26-0.436,2.345-1.298,3.2C476.797,69.863,475.727,70.304,474.48,70.304z M460.636,49.037c-1.268,0-2.473,0.244-3.59,0.725
					c-1.102,0.483-2.089,1.146-2.925,1.977c-0.82,0.82-1.47,1.787-1.928,2.878c-0.467,1.091-0.69,2.254-0.69,3.545
					c0,1.286,0.229,2.478,0.69,3.545c0.458,1.091,1.107,2.057,1.933,2.888c0.821,0.821,1.771,1.447,2.899,1.917
					c1.127,0.47,2.343,0.707,3.61,0.707h13.844c0.432,0,0.743-0.127,1.039-0.416c0.265-0.265,0.379-0.569,0.379-1.008V41.863
					c0-1.361-0.207-2.598-0.639-3.761c-0.426-1.148-1.019-2.135-1.751-2.933c-0.748-0.808-1.651-1.446-2.68-1.898
					c-1.05-0.457-2.183-0.681-3.455-0.681h-13.408l-0.316,0.307c-0.011,0.247,0.104,0.312,0.462,0.312h13.263
					c2.39,0,4.369,0.935,5.735,2.717c1.304,1.681,1.958,3.756,1.958,6.161v6.951H460.636z M475.067,66.445h-14.431
					c-1.153,0-2.25-0.21-3.273-0.634c-1.022-0.421-1.927-1.019-2.686-1.782c-0.753-0.761-1.351-1.646-1.766-2.628
					c-0.432-1.026-0.649-2.112-0.649-3.239c0-1.104,0.213-2.195,0.628-3.239c0.437-1.036,1.034-1.943,1.793-2.701
					c0.737-0.748,1.626-1.351,2.654-1.803c1.023-0.452,2.135-0.686,3.299-0.686h14.431V66.445z M460.636,52.818
					c-0.743,0-1.413,0.141-2.052,0.421c-0.671,0.296-1.242,0.683-1.715,1.159c-0.483,0.483-0.847,1.031-1.111,1.688
					c-0.275,0.67-0.405,1.356-0.405,2.076c0,0.717,0.13,1.4,0.395,2.031c0.265,0.626,0.634,1.171,1.122,1.665
					c0.468,0.47,1.028,0.832,1.668,1.096c0.659,0.278,1.34,0.405,2.099,0.405h11.345V52.818H460.636z"/>
			</g>
		</g>
	</g>
	<g>
		<polygon fill="#71C5D0" points="7.268,62.967 0,50.364 7.268,37.787 21.803,37.787 29.07,50.364 21.803,62.967 		"/>
		<polygon opacity="0.5" fill="#71C5D0" points="206,50.359 198.733,37.756 206,25.18 220.536,25.18 227.809,37.756 220.536,50.359 
					"/>
		<polygon fill="#71C5D0" points="205.996,75.551 198.723,62.956 205.996,50.377 220.526,50.377 227.798,62.956 220.526,75.551 		
			"/>
		<polygon fill="#71C5D0" points="75.143,75.567 67.881,62.982 75.143,50.4 89.684,50.4 96.951,62.982 89.684,75.567 		"/>
		<polygon opacity="0.5" fill="#71C5D0" points="96.972,88.159 89.699,75.564 96.972,62.972 111.507,62.972 118.775,75.564 
			111.507,88.159 		"/>
		<polygon opacity="0.5" fill="#71C5D0" points="96.972,62.961 89.699,50.372 96.972,37.782 111.507,37.782 118.775,50.372 
			111.507,62.961 		"/>
		<polygon opacity="0.5" fill="#71C5D0" points="118.79,50.375 111.518,37.782 118.79,25.195 133.325,25.195 140.593,37.782 
			133.325,50.375 		"/>
		<polygon opacity="0.5" fill="#71C5D0" points="53.403,37.684 46.13,25.096 53.403,12.509 67.933,12.509 75.206,25.096 
			67.933,37.684 		"/>
		<polygon opacity="0.5" fill="#71C5D0" points="53.32,88.141 46.052,75.554 53.32,62.956 67.855,62.956 75.127,75.554 
			67.855,88.141 		"/>
		<polygon fill="#71C5D0" points="162.412,75.525 155.149,62.941 162.412,50.359 176.946,50.359 184.213,62.941 176.946,75.525 		
			"/>
		<polygon fill="#71C5D0" points="184.172,37.818 176.905,25.19 184.172,12.566 198.708,12.566 205.975,25.19 198.708,37.818 		"/>
		<polygon fill="#71C5D0" points="184.199,88.11 176.931,75.522 184.199,62.941 198.733,62.941 206,75.522 198.733,88.11 		"/>
		<polygon fill="#71C5D0" points="205.991,25.18 198.718,12.587 205.991,0 220.526,0 227.793,12.587 220.526,25.18 		"/>
		<polygon opacity="0.5" fill="#71C5D0" points="162.37,50.379 155.107,37.792 162.37,25.2 176.905,25.2 184.172,37.792 
			176.905,50.379 		"/>
		<polygon fill="#71C5D0" points="140.598,62.993 133.335,50.411 140.598,37.818 155.138,37.818 162.401,50.411 155.138,62.993 		
			"/>
		<polygon opacity="0.5" fill="#71C5D0" points="140.598,88.141 133.325,75.554 140.598,62.956 155.123,62.956 162.396,75.554 
			155.123,88.141 		"/>
	</g>
</g>
</svg>
